<?xml version="1.0" standalone="no"?>
<!DOCTYPE svg PUBLIC "-//W3C//DTD SVG 20010904//EN"
 "http://www.w3.org/TR/2001/REC-SVG-20010904/DTD/svg10.dtd">
<svg version="1.0" xmlns="http://www.w3.org/2000/svg"
 width="208.000000pt" height="208.000000pt" viewBox="0 0 208.000000 208.000000"
 preserveAspectRatio="xMidYMid meet">
<metadata>
Created by potrace 1.11, written by Peter Selinger 2001-2013
</metadata>
<g transform="translate(0.000000,208.000000) scale(0.100000,-0.100000)"
fill="#000000" stroke="none">
<path d="M0 1040 l0 -1040 1040 0 1040 0 0 1040 0 1040 -1040 0 -1040 0 0
-1040z m315 937 c46 -26 64 -65 64 -144 l1 -53 -60 0 -60 0 0 33 c0 17 -3 49
-7 70 -5 31 -9 38 -27 35 -20 -3 -21 -8 -21 -178 0 -168 1 -175 20 -175 17 0
21 10 29 63 l10 62 59 0 60 0 -6 -67 c-5 -61 -8 -70 -40 -99 -68 -62 -188 -54
-235 16 -22 34 -23 40 -20 211 3 160 5 179 23 199 47 53 142 65 210 27z m334
5 c70 -35 76 -53 76 -241 0 -143 -3 -171 -18 -194 -39 -60 -116 -81 -191 -53
-76 29 -81 45 -81 246 0 152 2 178 18 201 38 56 130 75 196 41z m591 0 c60
-29 70 -65 70 -240 0 -106 -4 -163 -14 -185 -38 -93 -196 -102 -260 -14 -18
25 -20 42 -20 197 0 155 2 172 20 197 27 37 80 63 129 63 22 0 56 -8 75 -18z
m-330 -191 l0 -200 38 -3 c37 -3 37 -3 40 -51 l3 -48 -103 3 -103 3 -3 248 -2
247 65 0 65 0 0 -199z m580 -11 c0 -181 2 -211 15 -217 9 -3 19 -2 23 2 4 3 9
101 11 216 l3 209 60 0 59 0 -3 -214 c-3 -199 -4 -217 -24 -243 -48 -65 -170
-69 -231 -8 l-33 33 0 216 0 216 60 0 60 0 0 -210z m442 199 c49 -13 68 -49
68 -127 0 -62 -13 -85 -55 -94 -18 -4 -17 -6 7 -16 40 -17 48 -41 48 -151 l0
-101 -55 0 -55 0 0 103 c0 102 -7 127 -37 127 -10 0 -13 -27 -13 -115 l0 -115
-60 0 -60 0 0 250 0 250 88 0 c48 0 104 -5 124 -11z m-712 -624 c0 -22 -38
-73 -63 -85 -51 -24 -77 -72 -79 -149 l-1 -66 -6 65 -6 65 -55 2 c-30 1 -81 2
-112 2 l-58 1 42 85 42 85 148 0 c82 0 148 -2 148 -5z m600 0 c0 -3 -18 -41
-40 -85 l-40 -80 -53 -1 c-180 -3 -178 -3 -198 30 -19 31 -19 31 8 86 l27 55
148 0 c81 0 148 -2 148 -5z m-1633 -119 l28 -24 28 24 c33 28 82 31 115 8 44
-31 52 -63 52 -219 l0 -145 -50 0 -49 0 -3 133 c-3 109 -6 132 -18 132 -12 0
-15 -23 -18 -132 l-3 -133 -54 0 -54 0 -3 133 c-3 109 -6 132 -18 132 -12 0
-15 -23 -18 -132 l-3 -133 -49 0 -50 0 0 145 c0 156 8 188 52 219 33 23 82 20
115 -8z m1080 0 l28 -24 28 24 c33 28 82 31 115 8 44 -31 52 -63 52 -219 l0
-145 -50 0 -49 0 -3 133 c-3 109 -6 132 -18 132 -12 0 -15 -23 -18 -132 l-3
-133 -54 0 -54 0 -3 133 c-3 109 -6 132 -18 132 -12 0 -15 -23 -18 -132 l-3
-133 -49 0 -50 0 0 145 c0 156 8 188 52 219 33 23 82 20 115 -8z m-648 -80
c41 -22 51 -55 51 -171 l0 -105 -40 0 c-39 0 -40 1 -40 35 0 32 -2 35 -30 35
-28 0 -30 -3 -30 -35 0 -34 -1 -35 -40 -35 l-40 0 0 108 c1 115 10 145 51 168
32 18 83 17 118 0z m183 -11 c6 -14 14 -25 18 -25 4 0 12 11 18 25 10 21 18
25 57 25 25 0 45 -2 45 -5 0 -2 -17 -34 -37 -71 l-37 -67 35 -65 c19 -36 35
-69 37 -74 2 -4 -17 -8 -42 -8 -40 0 -48 4 -58 25 -6 14 -14 25 -18 25 -4 0
-12 -11 -18 -25 -10 -21 -18 -25 -58 -25 -25 0 -44 4 -42 8 2 5 18 38 37 74
l35 65 -37 67 c-20 37 -37 69 -37 71 0 3 20 5 45 5 39 0 47 -4 57 -25z m248
-120 l0 -145 -40 0 -40 0 0 145 0 145 40 0 40 0 0 -145z m558 3 l-3 -143 -37
-3 -38 -3 0 145 0 146 40 0 41 0 -3 -142z m262 102 c0 -39 -1 -40 -35 -40 -33
0 -35 -2 -35 -35 0 -29 -4 -35 -21 -35 -11 0 -29 -5 -40 -10 -17 -10 -19 -7
-19 35 0 45 0 45 -35 45 -34 0 -35 1 -35 40 l0 40 110 0 110 0 0 -40z m190 0
l0 -40 -40 0 c-29 0 -40 -4 -40 -15 0 -11 11 -15 40 -15 39 0 40 -1 40 -35 0
-34 -1 -35 -40 -35 -29 0 -40 -4 -40 -15 0 -11 11 -15 40 -15 l40 0 0 -40 0
-40 -49 0 c-45 0 -49 2 -54 29 -3 15 -17 42 -31 59 -22 25 -26 40 -26 91 0 52
4 66 25 86 20 21 34 25 80 25 l55 0 0 -40z m-1112 -152 l-3 -53 -26 50 -27 50
27 50 26 50 3 -47 c2 -26 2 -71 0 -100z m710 48 c-28 -56 -28 -56 -28 1 0 48
1 50 25 46 l24 -5 -21 -42z m142 -106 l0 -40 -41 0 c-36 0 -40 2 -37 23 2 13
16 29 38 39 19 10 36 18 38 18 1 0 2 -18 2 -40z m-965 -51 c4 -6 32 -9 66 -8
32 1 61 0 64 -3 3 -3 -9 -35 -27 -72 l-32 -66 -148 0 c-81 0 -148 3 -148 8 1
4 16 36 34 71 l33 65 61 -3 c34 -1 63 2 67 8 3 6 10 11 15 11 5 0 12 -5 15
-11z m732 -12 c2 -3 -11 -34 -29 -71 l-32 -66 -148 0 c-81 0 -148 2 -148 5 0
2 14 34 32 69 32 65 32 65 77 68 62 4 242 0 248 -5z m-757 -272 l0 -45 -45 0
-45 0 0 -55 0 -55 40 0 40 0 0 -45 0 -45 -40 0 -40 0 0 -105 0 -106 -62 3 -63
3 -3 235 c-1 129 0 240 2 247 4 9 35 13 111 13 l105 0 0 -45z m160 -165 c0
-181 2 -211 15 -217 9 -3 19 -2 23 2 4 3 8 101 10 216 l3 209 60 0 59 0 0
-209 c0 -200 -1 -209 -23 -242 -45 -68 -165 -78 -230 -19 l-32 28 -3 221 -3
221 60 0 61 0 0 -210z m371 95 l37 -110 1 113 1 113 53 -3 52 -3 0 -245 0
-245 -55 0 -55 0 -32 108 c-17 60 -34 111 -37 115 -3 3 -6 -47 -6 -111 l0
-117 -50 0 -50 0 0 251 0 250 52 -3 51 -3 38 -110z"/>
<path d="M554 1864 c-7 -62 -1 -291 9 -300 3 -4 13 -4 22 -1 13 5 15 33 15
182 0 166 -1 175 -19 175 -16 0 -21 -10 -27 -56z"/>
<path d="M1147 1913 c-4 -3 -7 -82 -7 -175 0 -143 2 -170 15 -175 9 -3 19 -2
23 2 9 9 16 277 8 321 -6 31 -23 43 -39 27z"/>
<path d="M1840 1850 c0 -43 4 -60 13 -60 23 0 37 23 37 60 0 37 -14 60 -37 60
-9 0 -13 -17 -13 -60z"/>
<path d="M537 1084 c-4 -4 -7 -18 -7 -31 0 -19 5 -23 31 -23 27 0 30 3 27 28
-3 26 -34 43 -51 26z"/>
</g>
</svg>
